<?xml version="1.0" standalone="no"?>
<!DOCTYPE svg PUBLIC "-//W3C//DTD SVG 20010904//EN"
 "http://www.w3.org/TR/2001/REC-SVG-20010904/DTD/svg10.dtd">
<svg version="1.0" xmlns="http://www.w3.org/2000/svg"
 width="1024.000000pt" height="1024.000000pt" viewBox="0 0 1024.000000 1024.000000"
 preserveAspectRatio="xMidYMid meet">
<metadata>
Created by potrace 1.14, written by Peter Selinger 2001-2017
</metadata>
<g transform="translate(0.000000,1024.000000) scale(0.100000,-0.100000)"
fill="#000000" stroke="none">
<path d="M4560 10235 c0 -6 -24 -10 -54 -10 -30 0 -52 -3 -49 -7 2 -5 -13 -8
-34 -8 -76 -1 -113 -4 -113 -11 0 -4 -10 -7 -22 -8 -64 -3 -87 -7 -94 -14 -12
-12 -26 -8 -18 6 6 10 4 10 -7 0 -7 -7 -25 -13 -39 -13 -14 0 -32 -6 -38 -12
-10 -10 -15 -10 -22 2 -6 9 -10 10 -10 3 0 -6 -9 -10 -20 -8 -11 2 -22 -1 -26
-6 -3 -5 -14 -7 -24 -4 -10 3 -21 1 -24 -4 -4 -5 -15 -8 -26 -6 -11 2 -20 0
-20 -4 0 -4 -13 -7 -30 -6 -16 1 -30 -2 -30 -7 0 -5 -4 -6 -10 -3 -5 3 -10 2
-10 -3 0 -5 -12 -7 -26 -4 -16 3 -25 1 -21 -5 3 -5 -4 -9 -16 -10 -44 -2 -77
-7 -77 -13 0 -3 -8 -7 -17 -8 -25 -2 -45 -8 -65 -16 -9 -4 -21 -5 -27 -2 -5 3
-11 1 -13 -5 -3 -10 -29 -17 -75 -21 -7 -1 -13 -6 -13 -11 0 -5 -9 -7 -21 -4
-11 3 -22 0 -25 -7 -3 -7 -10 -13 -17 -14 -20 -1 -56 -10 -67 -17 -5 -3 -20
-8 -32 -10 -13 -3 -24 -9 -26 -14 -2 -6 -10 -7 -18 -4 -8 3 -20 1 -27 -4 -6
-5 -31 -15 -54 -23 -24 -7 -43 -18 -43 -24 0 -6 -4 -5 -9 2 -6 10 -10 10 -21
-3 -7 -8 -19 -15 -26 -15 -8 0 -14 -4 -14 -9 0 -6 -9 -8 -20 -6 -11 2 -20 0
-20 -4 0 -5 -12 -12 -27 -17 -49 -13 -90 -30 -124 -49 -14 -8 -29 -12 -33 -8
-3 3 -6 0 -6 -7 0 -7 -3 -10 -7 -7 -3 4 -22 -3 -42 -15 -20 -13 -38 -23 -41
-23 -3 0 -4 -2 -3 -5 1 -3 -8 -7 -20 -7 -12 -1 -23 -7 -25 -13 -2 -5 -8 -8
-13 -4 -5 3 -9 0 -9 -6 0 -6 -4 -9 -9 -5 -6 3 -13 0 -18 -7 -4 -7 -38 -28 -76
-46 -37 -19 -74 -40 -82 -49 -8 -8 -15 -10 -15 -4 0 6 -9 3 -19 -6 -35 -32
-50 -43 -59 -43 -4 0 -17 -8 -28 -17 -10 -10 -26 -18 -34 -18 -8 0 -14 -5 -13
-12 2 -7 -4 -10 -12 -7 -8 4 -17 -1 -21 -10 -3 -9 -9 -14 -13 -12 -4 3 -23 -8
-42 -25 -19 -16 -39 -29 -46 -29 -6 0 -15 -9 -18 -20 -4 -11 -10 -18 -14 -15
-5 2 -16 -4 -26 -15 -10 -11 -27 -20 -37 -20 -11 0 -16 -4 -13 -10 3 -5 0 -10
-8 -10 -7 0 -30 -18 -51 -40 -20 -22 -44 -40 -52 -40 -8 0 -13 -4 -10 -9 4 -5
-10 -19 -29 -31 -19 -12 -35 -26 -35 -31 0 -6 -4 -8 -9 -5 -5 3 -14 -1 -21 -9
-7 -8 -21 -15 -31 -15 -10 0 -24 -9 -32 -20 -8 -11 -16 -17 -20 -14 -3 3 -10
-4 -17 -15 -6 -12 -15 -19 -20 -16 -5 3 -22 -12 -37 -34 -16 -22 -32 -40 -36
-41 -10 0 -77 -72 -77 -82 0 -4 -9 -10 -20 -13 -11 -4 -18 -11 -15 -16 4 -5 1
-9 -4 -9 -18 0 -52 -40 -45 -52 4 -7 3 -8 -4 -4 -7 4 -12 3 -12 -2 0 -9 -37
-25 -52 -23 -5 1 -8 -5 -8 -13 0 -8 -9 -18 -20 -21 -11 -3 -20 -11 -20 -16 0
-5 -11 -19 -25 -31 -14 -12 -25 -25 -25 -29 0 -4 -21 -30 -47 -58 -69 -72 -93
-101 -93 -114 0 -5 -3 -7 -7 -4 -9 10 -43 -44 -36 -57 3 -6 3 -8 -2 -4 -4 4
-17 -2 -27 -15 -34 -39 -65 -71 -100 -103 -19 -17 -33 -39 -32 -48 1 -9 -1
-14 -5 -11 -8 5 -26 -25 -36 -63 -4 -12 -10 -20 -15 -17 -5 3 -12 -5 -15 -17
-4 -13 -19 -33 -33 -45 -14 -13 -21 -23 -17 -23 5 0 -10 -17 -32 -37 -24 -23
-39 -45 -37 -56 1 -10 -4 -21 -12 -24 -8 -3 -12 -9 -9 -13 3 -4 -2 -11 -11
-14 -8 -3 -12 -10 -9 -16 3 -5 1 -10 -5 -10 -6 0 -8 -4 -5 -10 3 -5 1 -10 -5
-10 -6 0 -8 -4 -5 -10 3 -5 1 -10 -5 -10 -6 0 -8 -4 -5 -10 3 -5 2 -10 -4 -10
-5 0 -13 -9 -16 -21 -4 -12 -14 -29 -23 -39 -33 -36 -42 -49 -42 -60 0 -6 -4
-9 -8 -6 -5 3 -14 -11 -21 -30 -7 -20 -17 -32 -23 -28 -7 5 -8 2 -3 -6 5 -8 1
-18 -10 -27 -11 -7 -15 -13 -11 -13 5 0 3 -7 -4 -15 -7 -8 -9 -15 -4 -15 5 0
3 -4 -4 -9 -7 -4 -14 -14 -15 -22 -2 -8 -6 -20 -10 -26 -5 -7 -5 -17 -2 -23 3
-5 1 -10 -4 -10 -6 0 -11 -9 -11 -21 0 -11 -4 -17 -10 -14 -5 3 -10 -3 -10
-14 0 -11 -5 -23 -11 -26 -6 -4 -8 -13 -5 -20 2 -7 -2 -16 -10 -19 -8 -3 -14
-12 -14 -19 0 -8 -13 -33 -30 -55 -16 -23 -30 -46 -30 -52 0 -5 -4 -10 -10
-10 -5 0 -6 -7 -3 -17 4 -10 2 -14 -4 -10 -6 4 -13 0 -17 -8 -3 -8 0 -15 6
-15 6 0 6 -6 -3 -16 -7 -9 -15 -26 -16 -37 -2 -12 -8 -24 -13 -25 -6 -2 -13
-21 -16 -43 -4 -21 -9 -39 -13 -39 -6 0 -11 -26 -14 -67 0 -7 -4 -13 -9 -13
-4 0 -8 -11 -8 -25 0 -14 -6 -28 -14 -31 -8 -3 -12 -12 -9 -20 3 -8 -1 -14 -8
-14 -7 0 -10 -3 -6 -6 3 -4 0 -21 -8 -39 -7 -19 -11 -36 -7 -39 3 -3 -1 -6 -8
-6 -7 0 -10 -3 -7 -7 4 -3 2 -12 -4 -19 -6 -8 -9 -21 -5 -29 3 -10 -1 -15 -12
-15 -13 0 -14 -2 -3 -9 9 -6 10 -11 3 -15 -6 -4 -9 -13 -5 -21 3 -8 1 -15 -5
-15 -6 0 -9 -11 -7 -25 1 -14 -2 -28 -7 -31 -4 -3 -6 -10 -2 -15 3 -5 1 -15
-4 -22 -6 -7 -12 -21 -14 -32 -1 -11 -9 -26 -16 -33 -7 -8 -10 -18 -7 -23 4
-5 1 -9 -5 -9 -7 0 -10 -7 -7 -15 4 -8 2 -17 -3 -20 -5 -3 -9 -13 -9 -23 0
-28 -7 -68 -15 -80 -4 -7 -2 -12 5 -12 7 0 4 -7 -7 -15 -12 -9 -14 -14 -6 -15
10 0 9 -4 -3 -16 -13 -14 -14 -19 -3 -25 9 -6 10 -11 2 -16 -6 -5 -11 -19 -11
-33 -2 -33 -8 -58 -16 -66 -4 -4 -2 -13 4 -21 9 -9 8 -13 0 -13 -6 0 -11 -17
-11 -41 0 -29 -3 -38 -12 -33 -9 5 -9 2 1 -9 11 -14 11 -17 0 -17 -12 0 -12
-2 0 -9 9 -6 10 -11 2 -15 -6 -4 -9 -12 -6 -17 4 -5 2 -9 -3 -9 -6 0 -8 -9 -5
-20 3 -11 -1 -28 -8 -37 -10 -11 -10 -14 -2 -9 9 5 12 0 11 -18 -1 -15 -6 -26
-11 -26 -4 0 -3 -9 3 -20 6 -11 7 -20 2 -20 -9 0 -10 -2 -13 -72 -1 -28 -6
-48 -13 -48 -7 0 -7 -3 -1 -8 11 -8 15 -52 5 -52 -3 0 -5 -18 -4 -40 1 -24 -3
-40 -10 -40 -8 0 -8 -2 0 -8 12 -7 16 -65 4 -57 -3 2 -7 -2 -7 -10 0 -8 4 -12
9 -9 10 7 10 1 -2 -31 -7 -17 -7 -24 0 -20 6 3 10 1 10 -4 0 -6 -4 -11 -9 -11
-10 0 -3 -39 11 -57 6 -7 4 -14 -3 -19 -8 -5 -9 -3 -4 6 5 8 4 11 -3 6 -11 -7
-9 -37 4 -58 4 -6 3 -8 -3 -5 -5 3 -10 0 -10 -8 0 -8 3 -12 7 -10 4 2 6 -14 6
-35 -1 -22 -4 -40 -8 -40 -5 0 -8 -5 -8 -11 0 -5 6 -7 13 -3 9 6 9 4 0 -7 -15
-16 -17 -33 -3 -24 5 3 10 1 10 -4 0 -6 -4 -11 -10 -11 -5 0 -10 -5 -10 -11 0
-5 4 -8 9 -5 5 4 8 -2 6 -11 -2 -10 -4 -18 -5 -18 -7 0 -5 -47 2 -51 5 -3 3
-13 -4 -22 -11 -13 -11 -14 0 -8 10 6 13 2 12 -15 -1 -13 -1 -26 0 -29 7 -20
7 -41 -1 -46 -5 -3 -5 -12 -1 -22 5 -9 9 -36 8 -60 -1 -23 2 -42 6 -42 3 0 4
-9 1 -20 -3 -13 0 -20 8 -20 11 0 11 -2 -1 -10 -8 -5 -10 -10 -3 -10 11 0 12
-24 1 -35 -3 -4 0 -18 8 -33 9 -18 10 -28 3 -33 -8 -4 -8 -9 1 -14 6 -4 9 -13
6 -21 -3 -8 0 -14 6 -14 6 0 5 -6 -3 -17 -10 -11 -10 -14 -1 -9 9 5 12 -3 13
-31 1 -21 1 -41 0 -45 0 -5 5 -8 11 -8 9 0 8 -4 -2 -10 -12 -8 -12 -10 -1 -10
10 0 11 -3 2 -14 -8 -10 -9 -16 -1 -21 5 -3 10 -19 10 -36 0 -16 5 -29 13 -29
8 0 8 -3 2 -8 -10 -6 -11 -20 -5 -39 1 -5 2 -12 1 -17 -1 -4 4 -14 10 -22 9
-11 8 -14 -2 -14 -9 -1 -8 -5 5 -15 11 -8 15 -15 8 -15 -8 0 -9 -7 -1 -27 5
-14 8 -32 5 -39 -2 -7 -2 -15 2 -19 4 -4 8 -11 8 -16 1 -5 2 -10 3 -11 1 -2 4
-19 7 -38 2 -19 8 -36 13 -38 5 -2 7 -12 4 -22 -3 -13 0 -20 8 -20 11 0 11 -2
-1 -10 -9 -6 -11 -10 -3 -10 7 0 10 -7 7 -15 -4 -8 -2 -15 3 -15 5 0 10 -9 11
-20 1 -11 3 -29 4 -40 1 -11 6 -20 11 -20 5 0 7 -7 3 -15 -3 -8 0 -15 7 -15 8
0 6 -4 -3 -10 -9 -6 -10 -10 -3 -10 7 0 10 -9 8 -20 -2 -12 2 -23 9 -26 8 -3
12 -14 9 -25 -3 -11 1 -21 9 -24 10 -4 13 -16 10 -35 -3 -19 0 -30 7 -30 7 0
9 -4 6 -10 -3 -5 0 -10 7 -10 9 0 9 -3 -2 -10 -9 -6 -11 -10 -3 -10 7 0 10 -7
7 -15 -4 -9 0 -15 7 -15 11 0 11 -3 -1 -10 -11 -7 -11 -10 -2 -10 7 0 10 -5 7
-10 -3 -6 1 -13 10 -16 12 -5 13 -9 4 -20 -8 -10 -8 -14 0 -14 6 0 11 -7 11
-15 0 -8 4 -23 9 -33 5 -9 15 -38 23 -64 7 -27 16 -48 21 -48 5 0 7 -6 4 -14
-3 -8 -1 -16 4 -18 6 -2 11 -10 13 -18 1 -8 8 -26 15 -39 8 -14 9 -21 2 -17
-6 4 -2 -9 10 -28 11 -19 18 -40 14 -46 -3 -5 -1 -10 5 -10 7 0 9 -7 6 -16 -3
-8 -2 -12 4 -9 8 5 13 -15 9 -41 0 -4 3 -10 8 -13 4 -3 14 -17 21 -30 11 -19
11 -22 0 -16 -7 5 -4 -2 7 -13 36 -37 44 -50 38 -56 -4 -3 -1 -6 5 -6 6 0 9
-7 6 -15 -4 -8 -1 -15 5 -15 6 0 10 -3 9 -7 -4 -16 65 -142 75 -136 6 3 7 1 3
-6 -4 -6 -2 -19 6 -28 9 -12 9 -15 1 -9 -9 5 -11 2 -7 -8 3 -9 10 -16 14 -16
4 0 13 -13 20 -30 7 -16 16 -28 20 -25 8 5 36 -55 32 -68 -1 -5 1 -6 6 -4 4 3
23 -23 41 -59 18 -35 37 -61 42 -58 5 3 9 -4 9 -15 0 -11 7 -26 15 -34 8 -8
11 -17 8 -21 -4 -3 1 -6 10 -6 10 0 16 -3 16 -7 -3 -18 2 -31 21 -53 11 -12
17 -27 13 -33 -3 -5 -2 -7 4 -4 5 4 16 -5 23 -18 7 -14 17 -25 22 -25 5 0 6
-5 3 -10 -3 -6 1 -13 9 -16 9 -3 16 -15 16 -26 0 -10 4 -16 10 -13 5 3 10 0
10 -7 0 -7 14 -28 31 -46 16 -17 27 -32 24 -32 -3 0 3 -10 14 -22 11 -11 18
-26 14 -31 -3 -6 -1 -7 5 -3 8 5 12 -1 12 -16 0 -17 3 -19 9 -9 6 10 12 5 22
-17 7 -17 17 -28 21 -26 4 3 8 -4 8 -16 0 -12 4 -18 10 -15 5 3 10 2 10 -4 0
-6 11 -21 24 -34 14 -14 22 -27 20 -30 -3 -3 4 -8 15 -12 12 -3 21 -12 21 -20
0 -7 13 -24 29 -38 17 -14 27 -28 24 -31 -4 -3 1 -6 11 -6 9 0 14 -4 11 -10
-3 -5 1 -10 9 -10 9 0 16 -6 16 -14 0 -8 9 -18 20 -21 11 -4 18 -11 15 -16 -4
-5 1 -9 9 -9 9 0 15 -3 14 -8 -4 -11 119 -132 133 -132 7 0 10 -3 6 -6 -7 -7
97 -114 112 -114 6 0 11 -7 11 -15 0 -8 3 -15 8 -15 4 0 27 -18 51 -40 24 -22
47 -40 52 -40 5 0 9 -7 9 -15 0 -8 3 -14 8 -13 4 2 22 -11 41 -27 18 -17 37
-29 42 -27 5 1 9 -4 9 -11 0 -6 14 -18 30 -25 17 -8 28 -18 24 -23 -3 -5 2 -9
10 -9 9 0 16 -4 16 -10 0 -5 9 -10 19 -10 11 0 22 -8 25 -17 3 -10 26 -31 51
-47 25 -15 51 -35 58 -45 6 -9 19 -17 27 -19 8 -2 22 -11 31 -22 9 -11 19 -16
23 -13 3 4 6 2 6 -3 0 -5 16 -18 35 -28 19 -10 32 -23 29 -27 -3 -5 2 -6 10
-3 10 4 16 1 16 -7 0 -7 3 -10 6 -6 7 6 10 4 63 -42 19 -17 37 -28 41 -26 4 2
16 -4 27 -15 12 -10 23 -16 27 -13 3 3 8 -2 12 -11 3 -9 12 -16 19 -16 8 0 21
-7 29 -16 9 -8 16 -12 16 -8 0 4 7 -1 15 -12 11 -14 14 -15 15 -4 0 12 2 12 8
2 9 -14 66 -49 95 -58 9 -4 17 -10 17 -15 0 -5 9 -9 20 -9 11 0 20 -3 20 -7 0
-10 49 -33 69 -33 14 0 14 -1 1 -10 -13 -8 -12 -10 3 -10 18 0 138 -57 147
-70 3 -4 17 -10 33 -14 15 -3 27 -11 27 -17 0 -8 4 -8 14 0 11 9 16 9 22 0 5
-8 3 -9 -6 -4 -9 6 -11 4 -6 -4 5 -7 14 -10 22 -7 8 3 14 1 14 -5 0 -6 5 -7
10 -4 6 3 10 1 10 -4 0 -6 7 -11 16 -11 8 0 22 -7 31 -15 8 -9 20 -14 27 -12
6 2 17 -2 24 -10 8 -7 18 -11 23 -8 5 4 9 1 9 -5 0 -7 7 -10 15 -6 9 3 15 0
15 -8 0 -7 8 -13 18 -13 33 0 43 -3 38 -12 -3 -4 6 -6 19 -3 16 3 25 0 25 -8
0 -7 7 -10 15 -6 8 3 15 1 15 -4 0 -6 6 -10 14 -10 7 0 26 -7 42 -14 15 -8 31
-13 36 -10 4 3 8 0 8 -5 0 -6 11 -11 24 -11 14 0 28 -5 31 -11 4 -6 13 -8 21
-5 8 3 14 0 14 -6 0 -6 3 -8 7 -5 3 4 17 0 30 -8 15 -10 23 -12 23 -4 0 8 5 8
16 -1 8 -8 25 -15 37 -16 38 -6 52 -9 65 -17 7 -5 12 -3 12 5 0 8 5 6 11 -5 6
-9 14 -15 20 -12 5 4 9 2 9 -2 0 -5 8 -9 18 -10 43 -2 72 -8 72 -14 0 -6 11
-8 60 -11 17 -1 30 -5 30 -10 0 -4 10 -8 23 -8 13 0 29 -6 36 -12 11 -11 12
-10 6 2 -7 12 -6 13 6 3 8 -6 17 -12 22 -12 4 -1 10 -2 15 -2 4 -1 15 -1 25 0
9 1 17 -2 17 -7 0 -5 20 -8 45 -6 25 2 45 -1 45 -6 0 -5 11 -7 25 -4 15 3 25
0 25 -7 0 -6 9 -9 20 -6 10 3 20 1 22 -4 2 -5 26 -12 53 -15 52 -5 90 -11 90
-14 0 -1 10 -3 23 -4 12 -2 22 2 22 8 0 7 3 8 8 1 7 -10 42 -16 107 -19 17 0
32 -4 35 -8 8 -11 143 -13 159 -3 9 5 12 4 8 -2 -10 -15 18 -24 32 -10 6 6 11
7 11 1 0 -6 30 -10 73 -9 39 0 87 -2 105 -6 19 -4 32 -3 32 3 0 6 7 5 16 -3
18 -15 192 -20 212 -6 7 6 12 6 12 -1 0 -10 92 -8 110 3 6 3 10 2 10 -2 0 -5
9 -9 20 -10 11 -1 18 2 15 6 -5 9 38 6 54 -4 6 -3 11 -2 11 3 0 4 12 9 28 9
53 2 82 7 82 16 0 5 7 4 15 -3 12 -10 15 -10 15 1 0 9 3 10 8 4 9 -13 52 -15
52 -2 0 5 6 4 14 -2 9 -8 16 -9 21 -2 3 6 19 9 35 7 17 -2 30 0 30 4 0 4 16 4
35 0 19 -4 35 -4 35 0 0 4 7 11 16 14 10 4 13 2 8 -6 -5 -7 -3 -8 7 -2 15 9
29 12 72 16 15 1 27 7 27 13 0 5 5 3 10 -5 5 -8 10 -10 10 -5 0 6 23 11 51 13
28 1 56 5 62 9 7 4 24 6 39 4 14 -1 29 2 32 8 4 6 13 8 21 4 9 -3 22 0 30 7
12 10 15 10 15 0 0 -9 4 -9 13 -2 7 6 26 13 42 16 17 2 30 5 30 6 0 2 10 4 22
5 12 1 30 6 40 10 22 10 44 16 61 17 6 1 12 6 12 12 0 6 5 4 10 -4 9 -13 12
-13 20 2 6 10 18 14 30 11 11 -3 20 -1 20 4 0 5 14 8 30 7 17 -1 30 3 30 8 0
6 7 8 15 5 8 -4 17 -2 21 4 3 6 13 8 21 5 8 -4 11 -1 7 5 -4 7 4 10 22 7 21
-2 28 1 26 11 -3 12 -1 12 14 0 15 -12 17 -12 9 0 -6 11 -4 13 9 8 10 -4 15
-3 11 3 -5 8 38 15 48 8 2 -2 11 3 20 11 10 7 17 10 17 5 0 -5 4 -3 9 5 5 8
20 16 32 18 13 2 28 8 33 13 6 6 18 10 27 10 10 0 25 7 33 16 9 8 16 12 16 9
0 -4 11 0 25 9 14 9 25 13 25 9 0 -5 5 0 11 10 6 9 14 15 19 12 10 -6 62 20
54 28 -3 3 2 4 13 3 10 -2 24 1 31 7 6 5 12 6 12 1 0 -5 4 -3 9 4 4 7 17 14
29 15 11 0 18 5 16 9 -3 4 4 8 15 8 11 0 23 5 26 10 4 6 11 8 16 5 5 -4 9 -1
9 4 0 6 9 11 20 11 11 0 20 5 20 11 0 5 3 8 8 6 10 -7 32 19 24 27 -3 4 0 4 9
1 8 -3 24 3 34 12 11 10 30 18 42 17 12 -1 20 3 17 7 -3 5 4 9 15 9 12 0 21 5
21 11 0 6 7 9 15 5 8 -3 15 -1 15 4 0 5 11 12 25 16 14 3 25 10 25 15 0 5 7 9
17 9 9 0 31 11 49 25 18 14 37 25 43 25 5 0 17 10 25 22 9 12 16 18 16 13 0
-6 5 -2 11 8 6 9 14 15 20 12 5 -4 9 -1 9 5 0 7 7 9 16 6 8 -3 12 -2 9 4 -6 9
8 14 28 11 4 0 7 6 7 15 0 8 5 12 10 9 6 -3 10 -1 10 6 0 8 5 8 18 -2 9 -7 14
-10 10 -5 -8 9 20 33 65 56 16 8 33 22 38 32 6 10 14 16 20 13 5 -4 9 -1 9 4
0 6 7 11 16 11 8 0 12 5 9 10 -5 9 7 14 27 11 4 0 10 8 13 19 4 11 10 18 15
15 4 -3 11 2 14 11 3 8 11 12 16 9 6 -4 9 -1 8 7 -2 7 3 12 10 10 7 -1 15 5
19 14 3 8 17 20 30 25 13 5 21 14 18 19 -4 6 -1 9 7 8 7 -2 12 2 11 8 -1 8 6
10 19 6 14 -3 19 -1 14 6 -3 6 3 13 14 17 11 4 17 11 14 17 -5 8 -1 9 10 5 10
-4 15 -3 11 3 -3 6 -1 10 5 10 6 0 9 4 5 9 -3 6 4 8 15 6 11 -2 18 0 15 5 -3
5 3 14 14 19 11 6 23 20 26 31 4 11 10 18 15 15 5 -3 14 4 20 15 6 11 14 19
19 17 5 -1 19 10 33 24 13 14 30 23 37 21 10 -3 12 1 8 12 -4 9 -2 16 4 16 14
0 68 58 61 64 -3 3 3 8 12 12 9 3 13 11 9 17 -4 6 0 8 11 4 10 -4 15 -3 11 3
-3 6 -1 10 5 10 6 0 9 4 6 9 -4 5 4 7 16 3 15 -4 19 -2 14 7 -5 8 -1 14 12 18
11 3 23 12 26 20 3 8 10 11 16 8 5 -3 10 -1 10 5 0 6 5 8 10 5 6 -3 10 0 10 7
0 7 11 22 25 32 14 10 25 23 25 28 0 5 19 28 43 51 53 54 77 84 77 98 0 6 7 8
16 5 8 -3 13 -2 10 3 -3 4 5 19 17 32 12 13 21 27 19 31 -1 5 3 8 9 8 5 0 8 4
4 9 -3 6 4 15 15 21 11 6 18 15 15 21 -4 5 1 9 10 9 10 0 13 5 9 12 -5 8 -2 9
9 5 11 -4 17 -1 17 7 0 8 10 21 23 30 12 9 15 14 7 10 -13 -7 -13 -5 -1 9 7 9
18 14 24 10 6 -3 7 -1 3 5 -3 6 4 20 16 31 12 12 18 21 13 21 -4 0 5 12 21 26
16 15 23 23 17 20 -9 -5 -11 -2 -7 8 3 9 11 14 17 13 6 -1 13 8 15 21 2 12 8
22 13 22 5 0 22 20 38 45 15 24 32 41 37 37 4 -4 2 2 -6 12 -10 13 -10 17 -2
12 7 -4 12 -1 12 8 0 9 4 16 10 16 5 0 17 16 26 35 9 19 21 35 27 35 6 0 7 3
4 7 -4 3 1 12 11 20 11 10 12 12 2 8 -11 -5 -10 -2 2 7 9 8 20 26 23 40 4 15
13 29 21 32 8 3 14 12 14 21 0 8 5 15 11 15 5 0 8 4 4 9 -3 5 1 16 9 24 8 8
12 17 9 21 -4 3 -1 6 5 6 7 0 11 3 10 8 -3 15 15 42 25 35 5 -3 7 -1 4 4 -9
14 22 75 34 67 5 -3 9 -2 7 3 -3 12 35 83 44 83 5 0 6 5 3 10 -3 6 1 13 9 16
9 3 16 10 16 16 0 5 -6 6 -12 2 -13 -8 10 26 25 37 5 3 8 9 8 13 -3 19 0 27 8
22 4 -3 6 6 3 19 -2 15 0 25 7 25 7 0 10 4 6 9 -3 5 0 13 6 16 5 4 8 13 5 21
-3 8 1 14 9 14 9 0 12 6 9 15 -4 8 -1 15 6 15 6 0 8 5 5 10 -3 6 -1 10 5 10 7
0 10 6 7 14 -3 8 1 17 9 20 8 3 14 14 14 25 0 11 5 23 11 27 8 4 7 9 -2 15
-10 6 -11 9 -1 9 6 0 12 7 12 15 0 8 5 15 11 15 6 0 9 7 6 15 -4 8 -2 17 3 20
9 5 34 85 30 93 -1 2 7 10 17 19 10 8 11 11 3 7 -12 -7 -13 -5 -3 8 7 8 10 18
6 21 -3 4 -2 7 4 7 6 0 14 7 17 16 4 9 2 13 -5 8 -6 -3 -4 5 5 18 9 14 13 28
9 31 -3 4 -1 7 6 7 9 0 12 9 9 25 -3 14 -1 25 3 25 5 0 9 6 9 13 0 6 7 25 15
40 10 19 10 26 2 22 -7 -4 -3 1 7 9 15 12 16 16 5 16 -11 0 -11 2 -1 8 7 5 14
19 17 31 2 13 8 28 12 35 5 6 8 26 8 44 0 17 3 32 8 32 5 0 7 7 4 15 -4 8 -1
17 4 21 6 3 9 17 6 30 -2 14 0 27 6 31 6 4 7 1 2 -7 -5 -8 -4 -11 3 -7 5 4 8
17 4 29 -3 11 -1 19 4 16 5 -4 10 6 10 20 2 23 8 54 14 72 1 3 1 13 0 24 -1
10 2 16 7 13 5 -3 10 3 10 14 1 13 -2 17 -10 12 -7 -4 -6 0 2 10 7 9 11 24 7
32 -3 9 -2 13 4 10 6 -3 10 -3 11 2 0 4 2 19 4 33 2 14 5 42 6 62 1 20 5 35 8
33 4 -2 7 4 8 13 1 9 2 34 4 55 1 21 6 40 11 43 5 3 8 25 7 48 -2 23 1 48 6
56 4 7 10 36 12 64 5 58 5 58 1 108 -2 20 1 34 6 30 5 -3 7 2 3 10 -3 9 0 21
6 27 8 8 8 11 -1 11 -9 0 -10 6 -5 18 5 9 8 61 8 114 0 59 4 98 10 98 6 0 4 4
-4 9 -9 6 -10 11 -2 15 6 4 11 13 11 19 0 7 -4 6 -10 -3 -8 -13 -10 -13 -10 2
0 9 5 20 10 23 6 3 10 12 10 18 0 9 -2 9 -8 0 -4 -7 -8 66 -7 162 0 96 -3 175
-7 175 -4 0 -5 7 -2 15 4 8 1 22 -5 29 -9 11 -9 16 0 22 8 5 9 3 4 -6 -5 -9
-4 -11 4 -6 7 5 9 12 3 19 -5 7 -10 32 -12 57 -5 88 -6 96 -14 108 -4 7 -2 12
6 12 9 0 9 3 -2 10 -8 5 -12 10 -8 10 4 0 3 14 -2 30 -6 20 -5 30 2 30 6 0 6
6 -2 15 -7 8 -9 15 -5 15 5 0 0 9 -9 19 -13 14 -14 21 -5 27 8 5 10 3 4 -6 -5
-9 -4 -11 4 -6 8 5 9 12 2 20 -6 7 -11 29 -13 49 -1 20 -5 37 -9 37 -4 0 -8 8
-8 18 -3 56 -7 82 -14 82 -5 0 -6 4 -2 10 3 5 -1 25 -9 45 -11 25 -12 33 -3
28 7 -4 7 0 -2 10 -11 14 -11 17 0 17 12 0 12 2 1 9 -8 4 -15 26 -15 49 -1 22
-4 39 -7 37 -3 -2 -11 3 -18 11 -9 10 -9 14 -1 14 9 0 9 3 0 14 -9 10 -9 16
-1 21 8 5 7 11 -2 23 -11 13 -11 14 1 7 11 -6 12 -5 5 6 -8 14 -11 24 -19 64
-2 11 -8 34 -13 50 -5 17 -7 36 -5 43 3 6 0 12 -6 12 -5 0 -8 9 -6 20 2 11 -2
26 -9 33 -7 7 -12 20 -10 30 1 9 -1 17 -6 17 -4 0 -6 11 -5 25 2 14 -1 23 -6
19 -5 -3 -9 9 -9 25 0 17 -5 31 -11 31 -5 0 -7 5 -4 10 3 6 2 10 -3 10 -4 0
-8 16 -7 35 1 21 -2 32 -8 28 -6 -4 -8 0 -4 10 3 9 3 16 -1 16 -19 -3 -23 2
-12 16 8 9 9 15 2 15 -6 0 -9 9 -7 19 2 11 -3 22 -11 25 -9 3 -13 10 -9 15 3
5 1 12 -5 16 -6 4 -8 11 -5 16 4 5 2 9 -3 9 -5 0 -9 7 -10 15 -1 8 -3 22 -4
30 -1 8 -5 15 -10 15 -4 0 -7 3 -6 8 3 12 -24 62 -32 57 -4 -2 -7 2 -8 10 -1
8 -3 22 -4 30 -1 8 -5 15 -10 15 -4 0 -8 7 -8 16 0 8 -4 13 -8 10 -4 -2 -9 6
-10 20 -1 13 -11 42 -21 63 -11 21 -17 42 -13 46 4 3 0 5 -8 3 -8 -2 -15 3
-16 10 -1 6 -2 17 -3 23 0 5 -5 7 -11 4 -5 -3 -10 3 -10 14 0 12 -4 21 -10 21
-5 0 -7 7 -4 15 4 8 1 15 -7 15 -7 0 -9 3 -6 7 4 3 -1 12 -11 20 -9 8 -11 12
-5 8 9 -4 11 -1 7 9 -3 9 -11 16 -17 16 -6 0 -7 3 -4 7 4 3 -1 12 -11 20 -10
9 -11 12 -2 7 11 -6 10 -2 -3 13 -9 11 -14 23 -10 26 3 4 1 7 -5 7 -7 0 -12 9
-12 20 0 11 -4 20 -10 20 -5 0 -10 9 -10 21 0 11 -4 17 -10 14 -5 -3 -10 3
-10 14 0 12 -4 21 -10 21 -5 0 -10 6 -10 14 0 7 -9 25 -20 39 -11 14 -20 35
-20 47 0 11 -4 19 -8 16 -4 -2 -14 4 -21 16 -9 15 -9 18 0 13 6 -4 2 6 -11 23
-14 19 -19 35 -14 44 6 10 4 10 -10 -1 -9 -8 -16 -10 -14 -5 4 13 -23 74 -33
74 -5 0 -9 9 -9 21 0 11 -4 17 -10 14 -5 -3 -11 -1 -11 4 -1 6 -2 17 -3 24 -1
6 -7 11 -14 10 -7 -2 -11 0 -10 5 2 12 -15 46 -31 60 -13 11 -13 12 -1 7 8 -4
2 4 -13 18 -16 14 -26 31 -22 36 3 6 0 11 -7 11 -14 0 -44 39 -40 53 1 4 -3 7
-9 7 -5 0 -7 5 -4 10 3 6 -1 10 -9 10 -9 0 -16 7 -16 16 0 20 -25 45 -35 36
-5 -4 -5 1 -2 10 4 11 2 17 -5 15 -7 -1 -12 4 -13 11 0 7 -7 17 -15 22 -13 8
-13 10 -1 10 9 0 1 12 -17 28 -18 16 -32 34 -32 40 0 7 -5 12 -11 12 -5 0 -7
5 -3 12 4 6 3 8 -4 4 -5 -3 -20 10 -32 29 -12 19 -28 35 -36 35 -9 0 -12 5 -9
10 3 6 -1 13 -9 16 -9 3 -16 12 -16 20 0 8 -7 14 -17 14 -9 0 -14 3 -10 6 3 4
-2 14 -11 23 -12 11 -13 13 -2 7 8 -5 3 3 -12 17 -28 26 -38 44 -16 31 7 -4 8
-3 4 4 -4 6 -14 8 -23 5 -11 -4 -14 -3 -9 6 5 7 -3 20 -18 32 -15 11 -24 24
-21 29 3 4 -3 14 -13 21 -15 12 -16 12 -7 -1 10 -16 -5 1 -48 52 -12 15 -28
28 -36 28 -8 0 -11 3 -8 7 4 3 -2 12 -13 20 -11 8 -20 20 -20 27 0 8 -13 24
-30 37 -16 13 -30 30 -30 37 0 6 -6 12 -12 12 -7 0 -24 9 -38 20 -21 17 -22
19 -5 15 11 -3 5 2 -12 11 -18 10 -33 24 -33 31 0 7 -13 21 -30 32 -16 10 -27
21 -23 24 3 4 1 7 -6 7 -17 0 -42 26 -33 34 3 4 -1 4 -11 0 -12 -4 -17 -1 -17
11 0 9 -4 13 -10 10 -5 -3 -10 -1 -10 5 0 6 -11 15 -25 20 -14 5 -25 14 -25
20 0 6 -4 9 -9 6 -5 -3 -11 0 -14 8 -4 9 -14 12 -28 9 -15 -4 -20 -3 -15 5 4
7 1 12 -9 12 -9 0 -13 5 -10 10 3 6 1 10 -5 10 -7 0 -9 7 -6 16 3 8 2 12 -4 9
-6 -3 -10 1 -10 10 0 9 -4 14 -8 11 -5 -3 -15 4 -22 15 -8 10 -18 19 -23 19
-14 0 -37 27 -29 35 4 4 3 5 -3 4 -19 -5 -55 12 -55 27 0 8 -5 14 -11 14 -5 0
-7 -6 -4 -12 4 -7 -2 -3 -13 10 -11 12 -25 22 -31 22 -7 0 -14 7 -17 15 -4 8
-10 12 -15 9 -5 -3 -9 0 -9 6 0 6 -4 8 -10 5 -5 -3 -10 1 -10 9 0 9 -9 16 -20
16 -11 0 -20 5 -20 11 0 5 -4 7 -10 4 -5 -3 -10 1 -10 9 0 9 -5 16 -11 16 -5
0 -7 -6 -4 -12 4 -7 -2 -4 -12 8 -18 20 -25 24 -44 24 -5 0 -8 4 -5 8 2 4 -9
14 -25 21 -16 7 -27 16 -25 20 3 4 -5 8 -17 8 -12 1 -27 9 -33 18 -7 9 -21 18
-31 20 -10 1 -17 9 -15 16 2 8 0 11 -3 7 -4 -4 -24 1 -45 12 -21 11 -40 16
-44 13 -3 -4 -6 1 -6 11 0 9 -4 14 -10 11 -5 -3 -10 -1 -10 5 0 6 -4 8 -10 5
-5 -3 -10 -1 -10 5 0 6 -4 8 -10 5 -5 -3 -10 -1 -10 5 0 6 -4 8 -10 5 -5 -3
-10 -1 -10 5 0 6 -4 9 -9 6 -5 -4 -11 -1 -13 4 -2 6 -12 13 -23 14 -11 2 -19
9 -18 14 2 7 -4 9 -13 5 -9 -3 -19 -1 -23 5 -3 5 -15 12 -26 14 -11 1 -28 12
-38 23 -10 11 -16 13 -12 5 4 -10 2 -9 -8 2 -8 10 -17 15 -20 11 -4 -3 -9 1
-13 10 -3 9 -14 14 -25 12 -10 -2 -19 -1 -19 3 0 9 -49 32 -67 32 -7 0 -13 6
-13 13 0 8 -4 7 -10 -3 -8 -13 -10 -13 -10 2 0 11 -5 15 -15 12 -8 -4 -15 -1
-15 5 0 6 -12 11 -26 11 -16 0 -23 4 -18 11 4 7 1 10 -7 7 -7 -2 -22 4 -33 14
-15 14 -22 15 -28 6 -6 -10 -8 -9 -8 3 0 11 -8 15 -25 14 -15 -2 -25 2 -25 9
0 12 -5 14 -55 17 -13 1 -22 5 -19 10 5 8 -17 14 -38 10 -5 0 -8 4 -8 10 0 5
-4 7 -10 4 -5 -3 -10 -1 -10 6 0 7 -3 9 -7 6 -3 -4 -13 -1 -21 6 -13 10 -14 9
-7 -3 8 -13 7 -13 -8 -1 -9 7 -17 11 -17 7 0 -3 -16 0 -35 8 -19 8 -35 12 -35
9 0 -3 -11 2 -25 11 -14 9 -29 14 -34 12 -5 -3 -14 1 -21 9 -7 8 -16 12 -21 9
-5 -3 -9 1 -9 8 0 9 -3 9 -10 -2 -7 -12 -10 -12 -10 -1 0 7 -6 11 -14 8 -8 -3
-17 -3 -20 1 -4 3 -14 7 -24 8 -9 2 -18 8 -20 14 -3 8 -8 7 -18 -1 -11 -9 -14
-8 -14 1 0 8 -3 10 -7 7 -3 -4 -12 1 -20 11 -8 9 -11 11 -7 3 6 -11 3 -13 -12
-7 -39 16 -73 24 -78 18 -3 -3 -6 0 -6 6 0 7 -5 12 -11 12 -5 0 -7 -6 -3 -12
4 -7 -1 -6 -12 3 -10 9 -25 14 -31 12 -7 -3 -13 1 -13 7 0 9 -3 10 -14 1 -10
-9 -16 -8 -26 4 -15 18 -35 20 -24 3 5 -7 3 -8 -7 -2 -8 5 -17 9 -21 10 -5 1
-9 3 -10 4 -3 2 -12 4 -93 15 -22 3 -52 12 -67 20 -18 9 -30 10 -34 3 -4 -7
-9 -7 -13 1 -4 6 -28 12 -54 13 -26 2 -47 8 -47 13 0 6 -5 3 -10 -5 -5 -8 -10
-10 -10 -5 0 6 -23 12 -52 13 -28 1 -58 8 -66 15 -13 10 -14 9 -7 -3 7 -12 6
-13 -6 -4 -8 6 -26 11 -41 10 -16 -1 -28 2 -28 7 0 5 -8 3 -17 -4 -14 -12 -16
-12 -8 0 6 11 3 13 -13 9 -12 -4 -22 -2 -22 2 0 4 -10 6 -22 2 -16 -4 -19 -2
-13 8 6 9 4 11 -5 5 -16 -10 -170 -13 -164 -3 2 4 -8 5 -22 2 -36 -6 -38 -7
-44 -4 -19 9 -100 6 -100 -4 0 -8 -3 -8 -8 0 -9 13 -544 15 -535 1 3 -5 -4 -4
-16 2 -16 9 -21 9 -21 -1 0 -9 -3 -9 -10 2 -5 8 -10 10 -10 5z"/>
</g>
</svg>
